<?xml version="1.0" encoding="utf-8"?>
<!-- Uploaded to: SVG Repo, www.svgrepo.com, Generator: SVG Repo Mixer Tools -->
<svg width="800px" height="800px" viewBox="0 0 1024 1024" class="icon"  version="1.1" xmlns="http://www.w3.org/2000/svg"><path d="M479.64027 63.952036v-31.976018a31.976018 31.976018 0 0 0-31.976018-31.976018H191.856108a31.976018 31.976018 0 0 0-31.976018 31.976018v31.976018l-159.88009 159.88009v767.424432a31.976018 31.976018 0 0 0 31.976018 31.976018h575.568324a31.976018 31.976018 0 0 0 31.976018-31.976018v-767.424432l-159.88009-159.88009z" fill="#469FCC" /><path d="M159.88009 63.952036l-159.88009 159.88009v767.424432c0 17.682738 12.982263 31.976018 29.0662 31.976018H319.76018v-799.40045l-159.88009-159.88009z" fill="" /><path d="M639.52036 223.832126l-159.88009-159.88009H159.88009l159.88009 159.88009z" fill="#FFFFFF" /><path d="M0 287.784162h639.52036v319.76018H0z" fill="#EAEAEA" /><path d="M0 287.784162h319.76018v319.76018H0z" fill="" /><path d="M415.752186 415.784162h127.904072a31.976018 31.976018 0 1 0 0-63.952036h-127.904072a31.976018 31.976018 0 1 0 0 63.952036zM543.656258 479.736198h-127.904072a31.976018 31.976018 0 1 0 0 63.952036h127.904072a31.976018 31.976018 0 1 0 0-63.952036z" fill="" /><path d="M607.544342 991.256558a31.976018 31.976018 0 0 0 31.976018 31.976018h319.76018a31.976018 31.976018 0 0 0 31.976018-31.976018l31.976018-479.64027H575.568324l31.976018 479.64027z" fill="#DAE2E5" /><path d="M607.544342 991.256558l-31.976018-479.64027h-31.976018l31.976018 479.64027a31.976018 31.976018 0 0 0 31.976018 31.976018h31.976018a31.976018 31.976018 0 0 1-31.976018-31.976018z" fill="#434854" /><path d="M639.52036 959.28054a31.976018 31.976018 0 0 0 31.976018 31.976018h255.808144a31.976018 31.976018 0 0 0 31.976018-31.976018l19.313514-351.736198H620.206845l19.313515 351.736198z" fill="#FFFFFF" /><path d="M927.304522 511.616288l-29.865601 447.728204c-0.095928 17.650762-16.467649 31.912066-34.086435 31.912066h-223.832126c-17.682738 0-34.086435-14.29328-34.086435-31.976018l2.110417 31.976018a31.976018 31.976018 0 0 0 31.976018 31.976018h319.76018a31.976018 31.976018 0 0 0 31.976018-31.976018l31.976018-479.64027h-95.928054z" fill="" /></svg>