<?xml version="1.0" ?>
<!DOCTYPE svg  PUBLIC '-//W3C//DTD SVG 1.1//EN'  'http://www.w3.org/Graphics/SVG/1.1/DTD/svg11.dtd'>
<!-- Uploaded to: SVG Repo, www.svgrepo.com, Generator: SVG Repo Mixer Tools -->
<svg fill="#000000" width="800px" height="800px" viewBox="0 0 64 64" style="fill-rule:evenodd;clip-rule:evenodd;stroke-linejoin:round;stroke-miterlimit:2;" version="1.1" xml:space="preserve" xmlns="http://www.w3.org/2000/svg" xmlns:serif="http://www.serif.com/" xmlns:xlink="http://www.w3.org/1999/xlink">
<g transform="matrix(1,0,0,1,0,-192)">
<g id="Icon">
<path d="M15.922,213.5C15.922,213.871 16.127,214.211 16.455,214.384L22.488,217.568C22.798,217.732 23.171,217.721 23.471,217.54C23.771,217.359 23.955,217.034 23.955,216.684L23.955,196.898C23.955,196.346 23.507,195.898 22.955,195.898L16.922,195.898C16.37,195.898 15.922,196.346 15.922,196.898L15.922,213.5Z" style="fill:rgb(255,252,92);"/>
<path d="M19.442,195.898L16.922,195.898C16.37,195.898 15.922,196.346 15.922,196.898L15.922,213.5C15.922,213.871 16.127,214.211 16.455,214.384L22.488,217.568C22.798,217.732 23.171,217.721 23.471,217.54C23.682,217.413 23.835,217.215 23.907,216.988L18.975,214.384C18.647,214.211 18.442,213.871 18.442,213.5L18.442,196.898C18.442,196.346 18.89,195.898 19.442,195.898Z" style="fill:rgb(254,250,34);"/>
<path d="M40.053,216.684C40.053,217.034 40.236,217.359 40.536,217.54C40.837,217.721 41.21,217.732 41.52,217.568L47.552,214.384C47.88,214.211 48.086,213.871 48.086,213.5L48.086,196.898C48.086,196.346 47.638,195.898 47.086,195.898L41.053,195.898C40.5,195.898 40.053,196.346 40.053,196.898L40.053,216.684Z" style="fill:rgb(255,252,92);"/>
<path d="M47.086,195.898L44.053,195.898C44.605,195.898 45.053,196.346 45.053,196.898L45.053,213.5C45.053,213.871 44.848,214.211 44.52,214.384L40.054,216.741C40.073,217.07 40.253,217.369 40.536,217.54C40.837,217.721 41.21,217.732 41.52,217.568L47.552,214.384C47.88,214.211 48.086,213.871 48.086,213.5L48.086,196.898C48.086,196.346 47.638,195.898 47.086,195.898Z" style="fill:rgb(254,250,34);"/>
<path d="M34.02,223.496C34.02,223.912 34.277,224.284 34.666,224.431C35.054,224.579 35.493,224.47 35.769,224.159L41.801,217.347C41.963,217.164 42.053,216.928 42.053,216.684L42.053,196.898C42.053,196.346 41.605,195.898 41.053,195.898L35.02,195.898C34.468,195.898 34.02,196.346 34.02,196.898L34.02,223.496Z" style="fill:rgb(255,252,92);"/>
<path d="M41.053,195.898L38.406,195.898C38.958,195.898 39.406,196.346 39.406,196.898L39.406,221.012C39.406,221.256 39.316,221.492 39.154,221.675L34.02,227.473L34.02,227.825C34.02,228.24 34.277,228.612 34.666,228.76C35.054,228.907 35.493,228.799 35.769,228.487L41.801,221.675C41.963,221.492 42.053,221.256 42.053,221.012L42.053,196.898C42.053,196.346 41.605,195.898 41.053,195.898Z" style="fill:rgb(254,250,34);"/>
<path d="M27.987,223.496C27.987,224.049 28.435,224.496 28.987,224.496L35.02,224.496C35.572,224.496 36.02,224.049 36.02,223.496L36.02,206.4C36.02,205.847 35.572,205.4 35.02,205.4L28.987,205.4C28.435,205.4 27.987,205.847 27.987,206.4L27.987,223.496Z" style="fill:rgb(255,252,92);"/>
<path d="M35.02,205.4L32.532,205.4C33.084,205.4 33.532,205.847 33.532,206.4L33.532,223.496C33.532,224.049 33.084,224.496 32.532,224.496L35.02,224.496C35.572,224.496 36.02,224.049 36.02,223.496L36.02,206.4C36.02,205.847 35.572,205.4 35.02,205.4Z" style="fill:rgb(254,250,34);"/>
<path d="M21.955,216.684C21.955,216.928 22.044,217.164 22.206,217.347L28.239,224.159C28.514,224.47 28.953,224.579 29.342,224.431C29.73,224.284 29.987,223.912 29.987,223.496L29.987,196.898C29.987,196.346 29.54,195.898 28.987,195.898L22.955,195.898C22.402,195.898 21.955,196.346 21.955,196.898L21.955,216.684Z" style="fill:rgb(255,252,92);"/>
<path d="M24.991,195.898L22.955,195.898C22.402,195.898 21.955,196.346 21.955,196.898L21.955,216.684C21.955,216.928 22.044,217.164 22.206,217.347L23.991,219.362L23.991,196.898C23.991,196.346 24.438,195.898 24.991,195.898Z" style="fill:rgb(254,250,34);"/>
<path d="M23.749,214.653C23.75,214.677 23.75,214.701 23.751,214.725L23.749,214.653C23.7,213.456 22.715,212.501 21.506,212.5L11.992,212.5C11.711,212.5 11.444,212.618 11.254,212.825C11.065,213.031 10.971,213.308 10.996,213.588L14.291,251.088C14.336,251.604 14.769,252 15.287,252L48.72,252C49.239,252 49.671,251.604 49.717,251.088L53.012,213.588C53.036,213.308 52.942,213.031 52.753,212.825C52.564,212.618 52.296,212.5 52.016,212.5C52.016,212.5 45.398,212.5 42.502,212.5C41.906,212.5 41.335,212.737 40.914,213.158C40.493,213.579 40.256,214.151 40.256,214.746L40.256,214.748C40.256,219.302 36.558,223 32.004,223C27.449,223 23.751,219.302 23.751,214.748C23.751,214.713 23.75,214.679 23.748,214.645L23.749,214.653Z" style="fill:rgb(240,104,45);"/>
<path d="M43.67,212.5C43.95,212.5 44.218,212.618 44.407,212.825C44.596,213.031 44.69,213.308 44.666,213.588L41.371,251.088C41.325,251.604 40.893,252 40.374,252L48.72,252C49.239,252 49.671,251.604 49.717,251.088L53.012,213.588C53.036,213.308 52.942,213.031 52.753,212.825C52.564,212.618 52.296,212.5 52.016,212.5L43.67,212.5Z" style="fill:rgb(239,92,29);"/>
<path d="M12.576,231.576L13.118,237.741L25.98,237.741C27.105,239.948 29.4,241.461 32.045,241.461C34.691,241.461 36.986,239.948 38.111,237.741C38.111,237.741 45.524,237.741 50.889,237.741L51.431,231.576L38.11,231.576C36.986,229.369 34.691,227.855 32.045,227.855C29.4,227.855 27.105,229.369 25.98,231.576C25.98,231.576 18.405,231.576 12.576,231.576Z" style="fill:rgb(245,240,229);"/>
<path d="M51.431,231.576L50.889,237.741L42.543,237.741L43.085,231.576L51.431,231.576Z" style="fill:rgb(234,222,199);"/>
<circle cx="32.045" cy="234.658" r="3.082" style="fill:rgb(240,104,45);"/>
</g>
</g>
</svg>