<?xml version="1.0" encoding="iso-8859-1"?>
<!-- Uploaded to: SVG Repo, www.svgrepo.com, Generator: SVG Repo Mixer Tools -->
<svg height="800px" width="800px" version="1.1" id="Layer_1" xmlns="http://www.w3.org/2000/svg" xmlns:xlink="http://www.w3.org/1999/xlink" 
	 viewBox="0 0 511.999 511.999" xml:space="preserve">
<path style="fill:#DBD2CA;" d="M420.372,237.877c-31.253,0-56.59,23.591-56.59,52.69s25.336,52.69,56.59,52.69
	s56.59-23.591,56.59-52.69S451.625,237.877,420.372,237.877z M420.372,318.083c-16.32,0-29.551-12.318-29.551-27.514
	s13.23-27.514,29.551-27.514c16.32,0,29.55,12.318,29.55,27.514S436.692,318.083,420.372,318.083z"/>
<path style="fill:#F7F1EB;" d="M89.643,243.486h302.313c3.74,0,6.839,2.891,7.06,6.606c1.791,30.133-0.52,153.084-157.496,153.084
	c-156.86,0-160.439-122.77-158.94-153.017C82.765,246.417,85.877,243.486,89.643,243.486z"/>
<path style="fill:#DBD2CA;" d="M262.737,397.388c-156.86,0-160.439-122.77-158.94-153.017c0.015-0.301,0.055-0.595,0.108-0.884
	H89.643c-3.766,0-6.879,2.931-7.064,6.673c-1.498,30.247,2.08,153.017,158.94,153.017c27.861,0,50.828-3.887,69.787-10.427
	C297.031,395.717,280.935,397.388,262.737,397.388z"/>
<path style="fill:#F7F1EB;" d="M344.032,42.339c0,19.671-15.931,35.613-35.57,35.613H268.58c9.82,0,18.712,3.977,25.148,10.423
	c6.436,6.446,10.423,15.338,10.423,25.18c0,13.635-7.653,25.482-18.895,31.464c-4.97,2.64-10.65,4.139-16.676,4.139h-21.461
	c12.482,0,23.078,8.105,26.807,19.348c0.949,2.813,1.456,5.821,1.456,8.946v14.626c0,6.241-2.026,12.018-5.454,16.696
	c-5.13,7.028-13.442,11.598-22.808,11.598h-33.932c-15.597,0-28.252-12.665-28.252-28.295v-14.626c0-8.44,3.697-16.017,9.55-21.192
	c4.98-4.419,11.523-7.103,18.702-7.103h11.372c-3.062,0-6.026-0.388-8.861-1.121c-0.01,0-0.01,0-0.021,0
	c-6.252-1.606-11.846-4.872-16.266-9.303c-6.434-6.446-10.423-15.338-10.423-25.18c0-19.671,15.932-35.603,35.57-35.603h14.918
	c-4.765,0-9.291-0.938-13.442-2.64c-4.419-1.789-8.397-4.463-11.716-7.782c-2.705-2.716-4.97-5.852-6.683-9.313
	c-2.393-4.775-3.729-10.165-3.729-15.877c0-19.359,15.425-35.108,34.654-35.592c0.302-0.01,0.614-0.01,0.916-0.01h68.985
	c9.82,0,18.712,3.977,25.148,10.423C340.043,23.617,344.032,32.498,344.032,42.339z"/>
<path style="fill:#DBD2CA;" d="M204.43,192.08v-14.626c0-8.44,3.697-16.017,9.55-21.192c4.98-4.419,11.523-7.103,18.702-7.103
	h11.372c-3.062,0-6.026-0.388-8.861-1.121c-0.01,0-0.01,0-0.021,0c-6.252-1.606-11.846-4.872-16.266-9.303
	c-6.434-6.446-10.423-15.338-10.423-25.18c0-19.671,15.932-35.603,35.57-35.603h14.918c-4.764,0-9.291-0.938-13.442-2.64
	c-4.419-1.789-8.397-4.463-11.716-7.782c-2.705-2.716-4.97-5.852-6.683-9.313c-2.393-4.775-3.729-10.165-3.729-15.877
	c0-19.359,15.425-35.108,34.654-35.592c0.302-0.01,0.614-0.01,0.916-0.01h-19.496c-0.302,0-0.614,0-0.916,0.01
	c-19.229,0.485-34.654,16.234-34.654,35.592c0,5.712,1.336,11.102,3.729,15.877c1.714,3.46,3.978,6.596,6.683,9.313
	c3.32,3.32,7.298,5.994,11.716,7.782c4.15,1.703,8.677,2.64,13.442,2.64h-14.918c-19.64,0-35.57,15.932-35.57,35.603
	c0,9.841,3.988,18.734,10.423,25.18c4.42,4.43,10.013,7.696,16.266,9.303c0.01,0,0.01,0,0.021,0
	c2.835,0.734,5.799,1.121,8.861,1.121h-11.372c-7.178,0-13.722,2.684-18.702,7.103c-5.852,5.174-9.55,12.752-9.55,21.192v14.626
	c0,15.63,12.655,28.295,28.252,28.295h19.496C217.084,220.375,204.43,207.71,204.43,192.08z"/>
<path style="fill:#A9CF54;" d="M226.043,356.495c-18.552,82.503-127.921,54.465-155.628,45.932c-2.984-0.919-3.949-4.672-1.771-6.91
	c86.167-88.523,144.425-52.077,155.874-43.294C225.822,353.225,226.404,354.891,226.043,356.495z"/>
<path style="fill:#92B83D;" d="M86.314,389.89c20.201-21.556,38.918-36.25,55.921-45.987c-21.254,7.728-45.994,23.262-73.598,51.622
	c-2.171,2.231-1.209,5.982,1.767,6.898c20.978,6.462,88.858,24.132,128.598-3.568C150.741,413.132,86.314,389.89,86.314,389.89z"/>
<path style="fill:#362928;" d="M447.294,472.551H64.706C28.97,472.551,0,443.581,0,407.845v-0.036c0-2.382,1.931-4.313,4.313-4.313
	h503.372c2.382,0,4.313,1.931,4.313,4.313v0.036C512,443.581,483.03,472.551,447.294,472.551z"/>
<g>
	<path style="fill:#2E2322;" d="M19.941,407.845v-0.034c0-2.382,1.931-4.314,4.313-4.314H4.313c-2.382,0-4.313,1.931-4.313,4.314
		v0.034c0,35.737,28.97,64.706,64.706,64.706h19.941C48.911,472.551,19.941,443.581,19.941,407.845z"/>
	<path style="fill:#2E2322;" d="M444.341,472.549v27.088c0,3.104-2.512,5.627-5.627,5.627H73.286c-3.115,0-5.627-2.522-5.627-5.627
		v-27.088H444.341z"/>
</g>
<path style="fill:#291F1E;" d="M87.062,499.637v-27.088H67.659v27.088c0,3.104,2.512,5.627,5.627,5.627h19.402
	C89.573,505.264,87.062,502.741,87.062,499.637z"/>
<path style="fill:#627D2A;" d="M129.113,391.075c-3.513,0-6.745-2.307-7.766-5.851c-1.234-4.29,1.244-8.77,5.535-10.004
	l124.42-35.789c4.288-1.232,8.77,1.243,10.004,5.534c1.234,4.29-1.244,8.77-5.535,10.004l-124.42,35.789
	C130.605,390.973,129.853,391.075,129.113,391.075z"/>
</svg>